<?xml version="1.0" encoding="UTF-8"?>
<svg id="_图层_2" data-name="图层 2" xmlns="http://www.w3.org/2000/svg" viewBox="0 0 422.55 108.76">
  <defs>
    <style>
      .cls-1 {
        fill: #e78035;
      }

      .cls-2 {
        fill: #fff;
      }
    </style>
  </defs>
  <g id="_图层_1-2" data-name="图层 1">
    <g>
      <path class="cls-2" d="M0,34.42c0,19.62,17.21,26.75,28.78,26.75h39.17c2.54.03,15.23.8,15.23,13.16s-12.68,13.13-15.19,13.16H0v13.59h67.99c11.57,0,28.78-7.12,28.78-26.75s-17.21-26.75-28.78-26.75H28.81c-2.54-.03-15.23-.8-15.23-13.16s12.68-13.13,15.19-13.16h67.99V7.68H28.78C17.21,7.68,0,14.8,0,34.42Z"/>
      <path class="cls-2" d="M180.43,12.74c-12.37-5.61-24.63-5.67-25.15-5.67h-44.87v53h13.59V20.66h31.27c.1,0,10.19.11,19.9,4.62,12.12,5.63,18.01,15.15,18.01,29.11s-5.89,23.48-18.01,29.1c-9.71,4.51-19.8,4.62-19.88,4.62h-44.87v13.59h44.87c.52,0,12.78-.06,25.15-5.67,12.01-5.45,26.34-17.09,26.34-41.64s-14.32-36.19-26.34-41.64Z"/>
      <path class="cls-2" d="M298.04,11.15c-8.45-4.02-16.64-4.13-17.54-4.13h-60.02v13.59h60.02c.06,0,5.94.08,11.71,2.82,7.23,3.44,10.75,9.38,10.75,18.19,0,6.01-1.59,10.41-4.87,13.44-6.28,5.81-16.92,5.06-17,5.05l-60.61-.03v41.66h13.59v-28.08h46.2c2.51.15,16.97.61,26.96-8.55,6.18-5.67,9.32-13.57,9.32-23.49,0-13.97-6.57-24.79-18.5-30.46Z"/>
      <g>
        <path class="cls-1" d="M377.78,88.1c-1.55,0-3.07-.12-4.56-.32l-11.2,11.2c4.93,1.75,10.24,2.71,15.76,2.71,10.6,0,20.39-3.5,28.29-9.41l-9.75-9.75c-5.32,3.52-11.69,5.57-18.54,5.57Z"/>
        <path class="cls-1" d="M349.63,72.92c-3.52-5.32-5.57-11.69-5.57-18.54,0-18.59,15.13-33.72,33.72-33.72,1.55,0,3.06.12,4.55.32l11.2-11.2c-4.93-1.75-10.23-2.71-15.76-2.71-26.08,0-47.31,21.22-47.31,47.31,0,10.6,3.5,20.39,9.41,28.29l-6.87,26.09,82.67-82.67,6.87-26.09-72.92,72.92h0Z"/>
      </g>
    </g>
  </g>
</svg>