<?xml version="1.0" encoding="UTF-8"?>
<svg id="_图层_2" data-name="图层 2" xmlns="http://www.w3.org/2000/svg" viewBox="0 0 266.56 99.44">
  <defs>
    <style>
      .cls-1 {
        fill: #e68035;
      }

      .cls-2 {
        opacity: .92;
      }

      .cls-2, .cls-3 {
        fill: #190a00;
      }
    </style>
  </defs>
  <g id="_图层_1-2" data-name="图层 1">
    <g>
      <path class="cls-3" d="M0,21.72c0,12.38,10.86,16.87,18.15,16.87h24.71c1.6.02,9.61.51,9.61,8.3s-8,8.28-9.58,8.3H0v8.57h42.89c7.3,0,18.15-4.49,18.15-16.87s-10.86-16.87-18.15-16.87h-24.71c-1.6-.02-9.61-.51-9.61-8.3s8-8.28,9.58-8.3h42.89V4.84H18.15C10.86,4.84,0,9.34,0,21.72"/>
      <path class="cls-3" d="M113.82,8.04c-7.8-3.54-15.54-3.58-15.87-3.58h-28.31v33.43h8.57V13.03h19.72c.07,0,6.43.07,12.56,2.91,7.65,3.55,11.36,9.55,11.36,18.36s-3.72,14.81-11.36,18.36c-6.13,2.84-12.49,2.91-12.54,2.91h-28.31v8.57h28.31c.33,0,8.06-.04,15.87-3.58,7.58-3.43,16.61-10.78,16.61-26.27s-9.03-22.83-16.61-26.27"/>
      <path class="cls-3" d="M188.02,7.04c-5.33-2.53-10.49-2.61-11.06-2.61h-37.87v8.57h37.87s3.75.05,7.39,1.78c4.56,2.17,6.78,5.92,6.78,11.47,0,3.79-1,6.56-3.07,8.48-3.96,3.66-10.68,3.19-10.72,3.19l-38.24-.02v26.28h8.57v-17.71h29.15c1.58.1,10.7.38,17.01-5.4,3.9-3.58,5.88-8.56,5.88-14.82,0-8.81-4.15-15.64-11.67-19.21"/>
      <path class="cls-1" d="M238.32,55.58c-.98,0-1.94-.07-2.88-.2l-7.06,7.07c3.11,1.1,6.46,1.71,9.94,1.71,6.69,0,12.86-2.21,17.85-5.94l-6.15-6.15c-3.36,2.22-7.38,3.52-11.69,3.52"/>
      <path class="cls-1" d="M220.56,46c-2.22-3.36-3.52-7.38-3.52-11.7,0-11.73,9.54-21.27,21.27-21.27.97,0,1.93.08,2.87.2l7.07-7.07c-3.11-1.1-6.45-1.71-9.94-1.71-16.45,0-29.84,13.39-29.84,29.84,0,6.68,2.21,12.86,5.94,17.84l-4.34,16.46,52.15-52.15,4.34-16.46-46,46Z"/>
      <path class="cls-2" d="M.96,97.28l.98-1.13c1.05,1.12,2.52,1.84,4.07,1.84,1.98,0,3.18-1.01,3.18-2.49,0-1.58-1.08-2.07-2.47-2.69l-2.1-.93c-1.34-.57-2.95-1.57-2.95-3.7s1.9-3.79,4.49-3.79c1.73,0,3.23.75,4.21,1.78l-.88,1.05c-.88-.84-1.97-1.39-3.33-1.39-1.71,0-2.82.87-2.82,2.22,0,1.49,1.32,2.04,2.42,2.52l2.09.91c1.69.73,3.01,1.71,3.01,3.88,0,2.28-1.87,4.07-4.86,4.07-2.06,0-3.8-.85-5.03-2.16ZM12.77,93.84c0-3.58,2.31-5.64,4.93-5.64s4.92,2.06,4.92,5.64-2.31,5.61-4.92,5.61-4.93-2.06-4.93-5.61ZM20.96,93.84c0-2.55-1.34-4.28-3.27-4.28s-3.26,1.73-3.26,4.28,1.32,4.25,3.26,4.25,3.27-1.7,3.27-4.25ZM24.24,88.57l1.47-.11v-1.87c0-2.15.98-3.46,3.01-3.46.63,0,1.24.14,1.73.35l-.35,1.26c-.41-.2-.84-.29-1.23-.29-1.06,0-1.56.75-1.56,2.18v1.83h2.33v1.33h-2.33v9.39h-1.6v-9.39h-1.47v-1.22ZM32.04,95.95v-6.17h-1.62v-1.22l1.69-.11.18-3.04h1.35v3.04h2.95v1.33h-2.95v6.22c0,1.32.39,2.11,1.7,2.11.38,0,.89-.15,1.23-.3l.34,1.22c-.61.21-1.31.4-1.92.4-2.23,0-2.95-1.4-2.95-3.49ZM37.73,88.46h1.66l1.69,6.37c.22,1.02.43,1.97.64,2.96h.1c.24-.99.47-1.94.74-2.96l1.74-6.37h1.62l1.75,6.37c.26,1.02.5,1.97.76,2.96h.09c.22-.99.43-1.94.68-2.96l1.63-6.37h1.56l-2.93,10.72h-1.98l-1.63-5.98c-.29-1.02-.49-2-.76-3.08h-.1c-.23,1.08-.46,2.09-.75,3.11l-1.59,5.95h-1.88l-3.03-10.72ZM53.82,96.42c0-2.34,2.04-3.49,6.65-4.01.02-1.44-.43-2.86-2.27-2.86-1.3,0-2.45.61-3.27,1.18l-.64-1.13c.92-.61,2.42-1.39,4.15-1.39,2.61,0,3.65,1.76,3.65,4.33v6.65h-1.32l-.14-1.31h-.07c-1.03.86-2.25,1.57-3.6,1.57-1.77,0-3.12-1.08-3.12-3.03ZM60.46,96.64v-3.13c-3.79.43-5.07,1.35-5.07,2.8,0,1.3.88,1.81,1.98,1.81s2-.51,3.1-1.49ZM65.57,88.46h1.32l.16,1.96h.05c.74-1.35,1.83-2.23,3.04-2.23.46,0,.78.06,1.13.22l-.31,1.42c-.36-.13-.59-.18-1.03-.18-.9,0-2.01.67-2.74,2.55v6.97h-1.62v-10.72ZM71.98,93.84c0-3.49,2.33-5.64,4.78-5.64,2.69,0,4.23,1.93,4.23,5.02,0,.35-.03.7-.08.97h-7.33c.1,2.37,1.54,3.95,3.67,3.95,1.07,0,1.92-.33,2.72-.88l.59,1.1c-.91.59-2.02,1.09-3.49,1.09-2.84,0-5.09-2.09-5.09-5.61ZM79.56,93c0-2.28-1.04-3.5-2.78-3.5-1.58,0-2.99,1.28-3.21,3.5h5.99ZM88.27,84.66h3.56c4.48,0,6.79,2.64,6.79,7.21s-2.31,7.31-6.71,7.31h-3.63v-14.52ZM91.69,97.82c3.54,0,5.24-2.25,5.24-5.95s-1.7-5.86-5.24-5.86h-1.78v11.81h1.78ZM100.83,93.84c0-3.49,2.33-5.64,4.78-5.64,2.69,0,4.23,1.93,4.23,5.02,0,.35-.03.7-.08.97h-7.33c.1,2.37,1.54,3.95,3.67,3.95,1.07,0,1.92-.33,2.72-.88l.59,1.1c-.91.59-2.02,1.09-3.49,1.09-2.83,0-5.09-2.09-5.09-5.61ZM108.41,93c0-2.28-1.04-3.5-2.78-3.5-1.58,0-2.99,1.28-3.21,3.5h5.99ZM111.25,88.57l1.47-.11v-1.87c0-2.15.98-3.46,3.01-3.46.63,0,1.24.14,1.73.35l-.35,1.26c-.41-.2-.84-.29-1.23-.29-1.06,0-1.56.75-1.56,2.18v1.83h2.33v1.33h-2.33v9.39h-1.6v-9.39h-1.47v-1.22ZM118.45,85.03c0-.65.47-1.09,1.11-1.09s1.13.44,1.13,1.09c0,.71-.49,1.14-1.13,1.14s-1.11-.43-1.11-1.14ZM118.75,88.46h1.62v10.72h-1.62v-10.72ZM124.08,88.46h1.32l.16,1.58h.05c1.03-1.03,2.14-1.85,3.61-1.85,2.24,0,3.27,1.44,3.27,4.18v6.81h-1.62v-6.6c0-2.07-.63-2.97-2.13-2.97-1.13,0-1.93.59-3.05,1.73v7.85h-1.62v-10.72ZM135.26,93.84c0-3.49,2.33-5.64,4.78-5.64,2.69,0,4.23,1.93,4.23,5.02,0,.35-.03.7-.08.97h-7.33c.1,2.37,1.54,3.95,3.67,3.95,1.07,0,1.92-.33,2.72-.88l.59,1.1c-.91.59-2.02,1.09-3.49,1.09-2.83,0-5.09-2.09-5.09-5.61ZM142.83,93c0-2.28-1.04-3.5-2.78-3.5-1.58,0-2.99,1.28-3.21,3.5h5.99ZM146.16,93.84c0-3.47,2.2-5.64,4.68-5.64,1.26,0,2.09.47,3.05,1.26l-.08-1.87v-4.19h1.62v15.78h-1.32l-.15-1.29h-.05c-.85.85-1.99,1.56-3.32,1.56-2.68,0-4.42-2.03-4.42-5.61ZM153.81,96.54v-5.79c-.95-.86-1.8-1.19-2.74-1.19-1.81,0-3.24,1.76-3.24,4.26,0,2.63,1.12,4.25,3.08,4.25,1.04,0,1.95-.52,2.89-1.53ZM163.74,84.66h4.02c3.26,0,5.4,1.09,5.4,4.21s-2.12,4.42-5.32,4.42h-2.47v5.88h-1.64v-14.52ZM167.61,91.95c2.64,0,3.91-.93,3.91-3.08s-1.33-2.87-3.99-2.87h-2.15v5.95h2.24ZM174.58,93.84c0-3.58,2.31-5.64,4.93-5.64s4.92,2.06,4.92,5.64-2.31,5.61-4.92,5.61-4.93-2.06-4.93-5.61ZM182.77,93.84c0-2.55-1.34-4.28-3.27-4.28s-3.26,1.73-3.26,4.28,1.32,4.25,3.26,4.25,3.27-1.7,3.27-4.25ZM185.88,88.46h1.66l1.69,6.37c.22,1.02.43,1.97.64,2.96h.1c.24-.99.47-1.94.74-2.96l1.74-6.37h1.62l1.75,6.37c.26,1.02.5,1.97.76,2.96h.09c.22-.99.43-1.94.68-2.96l1.63-6.37h1.56l-2.93,10.72h-1.98l-1.63-5.98c-.29-1.02-.49-2-.76-3.08h-.1c-.23,1.08-.46,2.09-.75,3.11l-1.59,5.95h-1.88l-3.03-10.72ZM201.98,93.84c0-3.49,2.33-5.64,4.78-5.64,2.69,0,4.23,1.93,4.23,5.02,0,.35-.03.7-.08.97h-7.33c.1,2.37,1.54,3.95,3.67,3.95,1.07,0,1.92-.33,2.72-.88l.59,1.1c-.91.59-2.02,1.09-3.49,1.09-2.84,0-5.09-2.09-5.09-5.61ZM209.56,93c0-2.28-1.04-3.5-2.78-3.5-1.58,0-2.99,1.28-3.21,3.5h5.99ZM213.69,88.46h1.32l.16,1.96h.05c.74-1.35,1.83-2.23,3.04-2.23.46,0,.78.06,1.13.22l-.31,1.42c-.36-.13-.59-.18-1.03-.18-.9,0-2.01.67-2.74,2.55v6.97h-1.62v-10.72ZM224.92,91.92c0-4.66,2.7-7.52,6.38-7.52,1.75,0,3.11.85,3.93,1.78l-.9,1.06c-.77-.82-1.76-1.39-3.01-1.39-2.85,0-4.71,2.31-4.71,6.04s1.79,6.11,4.65,6.11c1.41,0,2.47-.61,3.44-1.67l.91,1.03c-1.14,1.33-2.53,2.09-4.42,2.09-3.61,0-6.26-2.84-6.26-7.52ZM237.38,93.84c0-3.58,2.31-5.64,4.93-5.64s4.92,2.06,4.92,5.64-2.31,5.61-4.92,5.61-4.93-2.06-4.93-5.61ZM245.57,93.84c0-2.55-1.34-4.28-3.27-4.28s-3.26,1.73-3.26,4.28,1.32,4.25,3.26,4.25,3.27-1.7,3.27-4.25ZM250.14,88.46h1.32l.16,1.96h.05c.74-1.35,1.83-2.23,3.04-2.23.46,0,.78.06,1.13.22l-.31,1.42c-.36-.13-.59-.18-1.03-.18-.9,0-2.01.67-2.74,2.55v6.97h-1.62v-10.72ZM256.55,93.84c0-3.49,2.33-5.64,4.78-5.64,2.69,0,4.23,1.93,4.23,5.02,0,.35-.03.7-.08.97h-7.33c.1,2.37,1.54,3.95,3.67,3.95,1.07,0,1.92-.33,2.72-.88l.59,1.1c-.91.59-2.02,1.09-3.49,1.09-2.83,0-5.09-2.09-5.09-5.61ZM264.13,93c0-2.28-1.04-3.5-2.78-3.5-1.58,0-2.99,1.28-3.21,3.5h5.99Z"/>
    </g>
  </g>
</svg>