<?xml version="1.0" encoding="UTF-8"?>
<svg id="_图层_2" xmlns="http://www.w3.org/2000/svg" version="1.1" viewBox="0 0 266.6 99.4">
  <!-- Generator: Adobe Illustrator 29.0.1, SVG Export Plug-In . SVG Version: 2.1.0 Build 192)  -->
  <defs>
    <style>
      .st0 {
        fill: #e68035;
      }

      .st1 {
        fill: #190a00;
      }
    </style>
  </defs>
  <g id="_图层_1-2">
    <g>
      <path class="st1" d="M0,37.2c0,12.4,10.9,16.9,18.1,16.9h24.7c1.6,0,9.6.5,9.6,8.3s-8,8.3-9.6,8.3H0v8.6h42.9c7.3,0,18.2-4.5,18.2-16.9s-10.9-16.9-18.2-16.9h-24.7c-1.6,0-9.6-.5-9.6-8.3s8-8.3,9.6-8.3h42.9v-8.6H18.1C10.9,20.3,0,24.8,0,37.2"/>
      <path class="st1" d="M113.8,23.5c-7.8-3.5-15.5-3.6-15.9-3.6h-28.3v33.4h8.6v-24.9h19.7c0,0,6.4,0,12.6,2.9,7.7,3.6,11.4,9.6,11.4,18.4s-3.7,14.8-11.4,18.4c-6.1,2.8-12.5,2.9-12.5,2.9h-28.3v8.6h28.3c.3,0,8.1,0,15.9-3.6,7.6-3.4,16.6-10.8,16.6-26.3s-9-22.8-16.6-26.3"/>
      <path class="st1" d="M188,22.5c-5.3-2.5-10.5-2.6-11.1-2.6h-37.9v8.6h37.9s3.8,0,7.4,1.8c4.6,2.2,6.8,5.9,6.8,11.5s-1,6.6-3.1,8.5c-4,3.7-10.7,3.2-10.7,3.2h-38.2s0,26.3,0,26.3h8.6v-17.7h29.1c1.6,0,10.7.4,17-5.4,3.9-3.6,5.9-8.6,5.9-14.8s-4.1-15.6-11.7-19.2"/>
      <path class="st0" d="M238.3,71c-1,0-1.9,0-2.9-.2l-7.1,7.1c3.1,1.1,6.5,1.7,9.9,1.7,6.7,0,12.9-2.2,17.9-5.9l-6.1-6.2c-3.4,2.2-7.4,3.5-11.7,3.5"/>
      <path class="st0" d="M220.6,61.4c-2.2-3.4-3.5-7.4-3.5-11.7,0-11.7,9.5-21.3,21.3-21.3s1.9,0,2.9.2l7.1-7.1c-3.1-1.1-6.4-1.7-9.9-1.7-16.4,0-29.8,13.4-29.8,29.8s2.2,12.9,5.9,17.8l-4.3,16.5,52.1-52.2,4.3-16.5-46,46h0Z"/>
    </g>
  </g>
</svg>